# xmcd
#
# Track frame offsets:
#	150
#	12979
#	28842
#	40665
#	57079
#	72620
#	86477
#	102077
#	114735
#	130764
#	145156
#	156178
#
# Disc length: 2222 seconds
#
# Revision: 1
# Processed by: cddbd v1.5.2PL0 Copyright (c) Steve Scherf et al.
# Submitted via: audiograbber 1.83.01
#
DISCID=9f08ac0c
DTITLE=Aaron McDarid - All About The Banjo
DYEAR=2015
DGENRE=Bluegrass
TTITLE0=All About The Banjo
TTITLE1=Grass Country
TTITLE2=Foggy Mountaion Chimes
TTITLE3=North Pointe
TTITLE4=Bending The Strings
TTITLE5=If It Ain't Love
TTITLE6=The Old Spinning Wheel
TTITLE7=Shenandoah Breakdown
TTITLE8=Nashville Skyline Rag
TTITLE9=Gunsmoke
TTITLE10=Foggy Mountaion Breakdown
TTITLE11=America The Beautiful
EXTD=
EXTT0=
EXTT1=
EXTT2=
EXTT3=
EXTT4=
EXTT5=
EXTT6=
EXTT7=
EXTT8=
EXTT9=
EXTT10=
EXTT11=
PLAYORDER=
